<?xml version="1.0" encoding="utf-8"?>
<!-- Generator: Adobe Illustrator 27.5.0, SVG Export Plug-In . SVG Version: 6.00 Build 0)  -->
<svg version="1.1" xmlns="http://www.w3.org/2000/svg" xmlns:xlink="http://www.w3.org/1999/xlink" x="0px" y="0px"
	 viewBox="0 0 1000 1000" style="enable-background:new 0 0 1000 1000;" xml:space="preserve">
<g id="background">
	<linearGradient id="SVGID_1_" gradientUnits="userSpaceOnUse" x1="1070" y1="500" x2="-306.28" y2="500">
		<stop  offset="0.0552" style="stop-color:#ECE9E6"/>
		<stop  offset="0.9796" style="stop-color:#ECE9E6"/>
	</linearGradient>
	<polygon style="fill:url(#SVGID_1_);" points="0,1000 0,0 1000,0 1000,1000 	"/>
</g>
<g id="object">
	<g>
		<g>
			<path style="fill:#B51019;" d="M382.178,899.682l-0.524-0.964l-281.336-516.54l517.503-281.86l0.525,0.963l281.335,516.54
				L382.178,899.682z M103.295,383.056l279.761,513.648l513.648-279.761l-279.76-513.648L103.295,383.056z"/>
		</g>
		<g>
			<path style="fill:#B51019;" d="M632.734,894.979L105.019,632.735l0.489-0.983l261.758-526.731l527.714,262.245l-0.489,0.983
				L632.734,894.979z M107.962,631.745l523.784,260.292l260.291-523.783L368.254,107.962L107.962,631.745z"/>
		</g>
		<g>
			<path style="fill:#B51019;" d="M252.585,835.281l-0.164-1.086l-87.702-581.611l582.696-87.866l0.164,1.086l87.701,581.61
				L252.585,835.281z M167.216,254.428l87.212,578.355l578.355-87.211l-87.211-578.354L167.216,254.428z"/>
		</g>
		<g>
			<path style="fill:#B51019;" d="M489.638,916.557l-0.757-0.795L83.442,489.638L510.361,83.443l0.757,0.795l405.44,426.124
				L489.638,916.557z M86.546,489.716l403.169,423.739l423.739-403.17L510.284,86.546L86.546,489.716z"/>
		</g>
		<g>
			<path style="fill:#B51019;" d="M730.44,847.167L152.832,730.44L269.56,152.833L847.168,269.56L730.44,847.167z M155.42,728.723
				L728.723,844.58L844.58,271.277L271.277,155.419L155.42,728.723z"/>
		</g>
		<g>
			<path style="fill:#B51019;" d="M347.793,887.892l-0.439-1.006L112.108,347.792l540.1-235.684l0.438,1.006l235.247,539.094
				L347.793,887.892z M114.997,348.926l233.929,536.076l536.076-233.929L651.073,114.997L114.997,348.926z"/>
		</g>
		<g>
			<path style="fill:#B51019;" d="M597.804,905.045l-0.937-0.572L94.954,597.805l307.241-502.85l0.937,0.572l501.914,306.668
				L597.804,905.045z M97.972,597.076l499.104,304.952l304.952-499.104L402.923,97.972L97.972,597.076z"/>
		</g>
		<g>
			<path style="fill:#B51019;" d="M224.305,812.441l-36.746-588.136l588.137-36.746l36.746,588.137L224.305,812.441z
				 M189.886,226.358l36.472,583.755l583.755-36.472l-36.472-583.755L189.886,226.358z"/>
		</g>
		<g>
			<path style="fill:#B51019;" d="M453.373,914.069l-0.685-0.858L85.931,453.372l0.857-0.684L546.627,85.931l0.685,0.858
				l366.757,459.838l-0.858,0.684L453.373,914.069z M89.015,453.72L453.72,910.985L910.985,546.28L546.28,89.015L89.015,453.72z"/>
		</g>
		<g>
			<path style="fill:#B51019;" d="M699.305,865.93l-1.053-0.31L134.07,699.305l0.311-1.052L300.694,134.07l1.053,0.31
				L865.93,300.694l-0.311,1.052L699.305,865.93z M136.796,697.821L697.82,863.204l165.384-561.026L302.18,136.796L136.796,697.821z
				"/>
		</g>
		<g>
			<path style="fill:#B51019;" d="M314.565,873.15l-0.35-1.041L126.849,314.564l1.041-0.349l557.545-187.365l0.351,1.041
				l187.365,557.545l-1.041,0.349L314.565,873.15z M129.63,315.946L315.945,870.37L870.37,684.054L684.055,129.63L129.63,315.946z"
				/>
		</g>
		<g>
			<path style="fill:#B51019;" d="M562.131,912.028L87.971,562.13L437.869,87.972l474.158,349.897L562.131,912.028z M91.041,561.667
				l470.627,347.291l347.29-470.626L438.332,91.041L91.041,561.667z"/>
		</g>
		<g>
			<path style="fill:#B51019;" d="M787.224,801.877l-589.101-14.653l0.027-1.097l14.627-588.004l589.1,14.653l-0.027,1.097
				L787.224,801.877z M200.371,785.084l584.713,14.544l14.543-584.713l-584.712-14.544L200.371,785.084z"/>
		</g>
		<g>
			<path style="fill:#B51019;" d="M417.461,908.43L91.57,417.461L582.539,91.57l325.89,490.968L417.461,908.43z M94.612,418.077
				l323.465,487.311l487.31-323.464L581.923,94.613L94.612,418.077z"/>
		</g>
		<g>
			<path style="fill:#B51019;" d="M666.653,881.908l-1.021-0.401L118.092,666.654l215.253-548.562l1.021,0.401l547.541,214.853
				L666.653,881.908z M120.937,665.413l544.475,213.65l213.651-544.475l-544.477-213.65L120.937,665.413z"/>
		</g>
		<g>
			<path style="fill:#B51019;" d="M282.748,855.568l-0.257-1.066l-138.06-571.754l572.82-138.316l0.257,1.066l138.06,571.754
				L282.748,855.568z M147.081,284.366l137.286,568.553L852.92,715.633L715.633,147.08L147.081,284.366z"/>
		</g>
		<g>
			<path style="fill:#B51019;" d="M525.982,915.875l-0.822-0.726L84.125,525.984l0.726-0.823L474.017,84.124l0.822,0.726
				l441.036,389.166l-0.726,0.823L525.982,915.875z M87.222,525.789l438.567,386.988l386.988-438.567L474.209,87.223L87.222,525.789
				z"/>
		</g>
		<g>
			<path style="fill:#B51019;" d="M759.821,825.761l-585.583-65.941l0.122-1.09l65.819-584.492l585.582,65.941l-0.122,1.09
				L759.821,825.761z M176.664,757.885l581.221,65.45l65.449-581.22l-581.22-65.45L176.664,757.885z"/>
		</g>
		<g>
			<path style="fill:#B51019;" d="M382.178,899.682l-0.524-0.964l-281.336-516.54l517.503-281.86l0.525,0.963l281.335,516.54
				L382.178,899.682z M103.295,383.056l279.761,513.648l513.648-279.761l-279.76-513.648L103.295,383.056z"/>
		</g>
		<g>
			<path style="fill:#B51019;" d="M632.734,894.979L105.019,632.735l0.489-0.983l261.758-526.731l527.714,262.245l-0.489,0.983
				L632.734,894.979z M107.962,631.745l523.784,260.292l260.291-523.783L368.254,107.962L107.962,631.745z"/>
		</g>
		<g>
			<path style="fill:#B51019;" d="M252.585,835.281l-0.164-1.086l-87.702-581.611l582.696-87.866l0.164,1.086l87.701,581.61
				L252.585,835.281z M167.216,254.428l87.212,578.355l578.355-87.211l-87.211-578.354L167.216,254.428z"/>
		</g>
	</g>
</g>
</svg>
