<svg xmlns="http://www.w3.org/2000/svg" xmlns:xlink="http://www.w3.org/1999/xlink" width="500" zoomAndPan="magnify" viewBox="0 0 375 374.999991" height="500" preserveAspectRatio="xMidYMid meet" version="1.0"><defs><clipPath id="0335154e26"><path d="M 138 126 L 259 126 L 259 262.5 L 138 262.5 Z M 138 126 " clip-rule="nonzero"/></clipPath><clipPath id="50391f4cd7"><path d="M 178 112.5 L 189 112.5 L 189 137 L 178 137 Z M 178 112.5 " clip-rule="nonzero"/></clipPath><clipPath id="e87483222e"><path d="M 192 112.5 L 203 112.5 L 203 137 L 192 137 Z M 192 112.5 " clip-rule="nonzero"/></clipPath><clipPath id="15583da130"><path d="M 171 112.5 L 210 112.5 L 210 123 L 171 123 Z M 171 112.5 " clip-rule="nonzero"/></clipPath><clipPath id="ca8b502669"><path d="M 115.875 185 L 168 185 L 168 196 L 115.875 196 Z M 115.875 185 " clip-rule="nonzero"/></clipPath></defs><rect x="-37.5" width="450" fill="#ffffff" y="-37.499999" height="449.999989" fill-opacity="1"/><rect x="-37.5" width="450" fill="#ffffff" y="-37.499999" height="449.999989" fill-opacity="1"/><g clip-path="url(#0335154e26)"><path fill="#ffffff" d="M 154.480469 149.359375 C 164.363281 141.363281 176.945312 136.570312 190.640625 136.570312 C 222.40625 136.570312 248.199219 162.363281 248.199219 194.128906 C 248.199219 225.894531 222.40625 251.6875 190.640625 251.6875 C 173.609375 251.6875 158.296875 244.269531 147.753906 232.5 C 145.828125 230.34375 142.515625 230.164062 140.363281 232.089844 C 138.210938 234.015625 138.027344 237.328125 139.953125 239.476562 C 152.414062 253.394531 170.511719 262.152344 190.640625 262.152344 C 228.179688 262.152344 258.664062 231.667969 258.664062 194.128906 C 258.664062 156.585938 228.179688 126.105469 190.640625 126.105469 C 174.453125 126.105469 159.578125 131.769531 147.898438 141.222656 C 145.652344 143.039062 145.304688 146.335938 147.117188 148.582031 C 148.941406 150.832031 152.234375 151.171875 154.480469 149.359375 Z M 154.480469 149.359375 " fill-opacity="1" fill-rule="evenodd"/></g><g clip-path="url(#50391f4cd7)"><path fill="#ffffff" d="M 188.894531 131.335938 L 188.894531 117.382812 C 188.894531 114.496094 186.550781 112.152344 183.664062 112.152344 C 180.773438 112.152344 178.429688 114.496094 178.429688 117.382812 L 178.429688 131.335938 C 178.429688 134.226562 180.773438 136.570312 183.664062 136.570312 C 186.550781 136.570312 188.894531 134.226562 188.894531 131.335938 Z M 188.894531 131.335938 " fill-opacity="1" fill-rule="evenodd"/></g><g clip-path="url(#e87483222e)"><path fill="#ffffff" d="M 202.847656 131.335938 L 202.847656 117.382812 C 202.847656 114.496094 200.503906 112.152344 197.617188 112.152344 C 194.726562 112.152344 192.382812 114.496094 192.382812 117.382812 L 192.382812 131.335938 C 192.382812 134.226562 194.726562 136.570312 197.617188 136.570312 C 200.503906 136.570312 202.847656 134.226562 202.847656 131.335938 Z M 202.847656 131.335938 " fill-opacity="1" fill-rule="evenodd"/></g><path fill="#ffffff" d="M 236.199219 148.988281 L 246.070312 139.125 C 248.105469 137.078125 248.105469 133.765625 246.070312 131.722656 C 244.027344 129.683594 240.710938 129.683594 238.667969 131.722656 L 228.800781 141.59375 C 226.757812 143.628906 226.757812 146.949219 228.800781 148.988281 C 230.839844 151.03125 234.160156 151.03125 236.199219 148.988281 Z M 236.199219 148.988281 " fill-opacity="1" fill-rule="evenodd"/><path fill="#ffffff" d="M 253.640625 138.105469 L 239.6875 124.152344 C 237.648438 122.105469 234.328125 122.105469 232.289062 124.152344 C 230.246094 126.1875 230.246094 129.507812 232.289062 131.546875 L 246.246094 145.5 C 248.28125 147.542969 251.601562 147.542969 253.640625 145.5 C 255.683594 143.460938 255.683594 140.140625 253.640625 138.105469 Z M 253.640625 138.105469 " fill-opacity="1" fill-rule="evenodd"/><g clip-path="url(#15583da130)"><path fill="#ffffff" d="M 176.6875 122.617188 L 204.59375 122.617188 C 207.480469 122.617188 209.824219 120.273438 209.824219 117.382812 C 209.824219 114.496094 207.480469 112.152344 204.59375 112.152344 L 176.6875 112.152344 C 173.796875 112.152344 171.453125 114.496094 171.453125 117.382812 C 171.453125 120.273438 173.796875 122.617188 176.6875 122.617188 Z M 176.6875 122.617188 " fill-opacity="1" fill-rule="evenodd"/></g><path fill="#ffffff" d="M 185.40625 155.753906 L 185.40625 190.640625 C 185.40625 192.027344 185.957031 193.359375 186.941406 194.335938 L 207.871094 215.265625 C 209.910156 217.3125 213.230469 217.3125 215.265625 215.265625 C 217.3125 213.230469 217.3125 209.910156 215.265625 207.871094 L 195.871094 188.46875 C 195.871094 188.46875 195.871094 155.753906 195.871094 155.753906 C 195.871094 152.867188 193.527344 150.523438 190.640625 150.523438 C 187.75 150.523438 185.40625 152.867188 185.40625 155.753906 Z M 185.40625 155.753906 " fill-opacity="1" fill-rule="evenodd"/><g clip-path="url(#ca8b502669)"><path fill="#ffffff" d="M 120.871094 195.871094 L 162.734375 195.871094 C 165.621094 195.871094 167.964844 193.527344 167.964844 190.640625 C 167.964844 187.75 165.621094 185.40625 162.734375 185.40625 L 120.871094 185.40625 C 117.984375 185.40625 115.640625 187.75 115.640625 190.640625 C 115.640625 193.527344 117.984375 195.871094 120.871094 195.871094 Z M 120.871094 195.871094 " fill-opacity="1" fill-rule="evenodd"/></g><path fill="#ffffff" d="M 141.800781 171.453125 L 162.734375 171.453125 C 165.621094 171.453125 167.964844 169.109375 167.964844 166.222656 C 167.964844 163.332031 165.621094 160.988281 162.734375 160.988281 L 141.800781 160.988281 C 138.914062 160.988281 136.570312 163.332031 136.570312 166.222656 C 136.570312 169.109375 138.914062 171.453125 141.800781 171.453125 Z M 141.800781 171.453125 " fill-opacity="1" fill-rule="evenodd"/><path fill="#ffffff" d="M 141.800781 220.289062 L 162.734375 220.289062 C 165.621094 220.289062 167.964844 217.945312 167.964844 215.058594 C 167.964844 212.167969 165.621094 209.824219 162.734375 209.824219 L 141.800781 209.824219 C 138.914062 209.824219 136.570312 212.167969 136.570312 215.058594 C 136.570312 217.945312 138.914062 220.289062 141.800781 220.289062 Z M 141.800781 220.289062 " fill-opacity="1" fill-rule="evenodd"/></svg>