<svg width="353" height="353" viewBox="0 0 353 353" fill="none" xmlns="http://www.w3.org/2000/svg">
<path d="M317 23.5C325.284 23.5 332 30.2157 332 38.5V78.5C332 86.7843 325.284 93.5 317 93.5H235.5C227.216 93.5 220.5 86.7843 220.5 78.5V38.5C220.5 30.2157 227.216 23.5 235.5 23.5H317ZM119.25 19.75C127.534 19.75 134.25 26.4657 134.25 34.75V160.75C134.25 169.034 127.534 175.75 119.25 175.75H36.75C28.4657 175.75 21.75 169.034 21.75 160.75V34.75C21.75 26.4657 28.4657 19.75 36.75 19.75H119.25ZM309 184C317.284 184 324 190.716 324 199V311.5C324 319.784 317.284 326.5 309 326.5H240.5C232.216 326.5 225.5 319.784 225.5 311.5V199C225.5 190.716 232.216 184 240.5 184H309ZM124.25 259C129.773 259 134.25 263.477 134.25 269V320C134.25 325.523 129.773 330 124.25 330H35.5C29.9772 330 25.5 325.523 25.5 320V269C25.5 263.477 29.9772 259 35.5 259H124.25ZM353 25C353 11.1929 341.807 0 328 0H221.333C207.526 0 196.333 11.1929 196.333 25V92.5C196.333 106.307 207.526 117.5 221.333 117.5H328C341.807 117.5 353 106.307 353 92.5V25ZM157.167 25C157.167 11.1929 145.974 0 132.167 0H25.5C11.6929 0 0.5 11.1929 0.5 25V170.833C0.5 184.64 11.6929 195.833 25.5 195.833H132.167C145.974 195.833 157.167 184.64 157.167 170.833V25ZM353 181.667C353 167.86 341.807 156.667 328 156.667H221.333C207.526 156.667 196.333 167.86 196.333 181.667V327.5C196.333 341.307 207.526 352.5 221.333 352.5H328C341.807 352.5 353 341.307 353 327.5V181.667ZM157.167 260C157.167 246.193 145.974 235 132.167 235H25.5C11.6929 235 0.5 246.193 0.5 260V327.5C0.5 341.307 11.6929 352.5 25.5 352.5H132.167C145.974 352.5 157.167 341.307 157.167 327.5V260Z" fill="black"/>
</svg>
