<?xml version="1.0" encoding="utf-8"?>
<svg viewBox="1257.299560546875 509.4000244140625 226.400390625 226.39990234375" width="226.400390625" height="226.39990234375" xmlns="http://www.w3.org/2000/svg"><path fill="#CCCCCC" d="M1483.7,622.6l-1.8-1.8c-6.1-5.9-13.9-9.3-22.3-10c7.9-2.8,14.6-8.1,19-15.4l1.3-2.2l-2.2-1.2&#10;&#9;&#9;&#9;c-7.4-4.1-15.9-5.4-24.1-3.8c6.9-4.7,12-11.6,14.3-19.8l0.7-2.4l-2.5-0.6c-8.2-2-16.7-1.1-24.3,2.5c5.5-6.3,8.6-14.3,8.7-22.8&#10;&#9;&#9;&#9;l0-2.5l-2.5,0c-8.5,0.2-16.5,3.2-22.8,8.7c3.7-7.6,4.6-16.1,2.5-24.3l-0.6-2.5l-2.4,0.7c-8.1,2.3-15.1,7.4-19.8,14.3&#10;&#9;&#9;&#9;c1.6-8.2,0.3-16.7-3.8-24.1l-1.2-2.2l-2.2,1.3c-7.3,4.4-12.6,11-15.4,19c-0.6-8.4-4.1-16.2-10-22.3l-1.8-1.8l-1.8,1.8&#10;&#9;&#9;&#9;c-5.9,6.1-9.3,13.9-10,22.3c-2.8-7.9-8.1-14.6-15.4-19l-2.2-1.3l-1.2,2.2c-4.1,7.4-5.4,15.9-3.8,24.1c-4.7-6.9-11.6-12-19.8-14.3&#10;&#9;&#9;&#9;l-2.4-0.7l-0.6,2.5c-2,8.2-1.1,16.7,2.5,24.3c-6.3-5.5-14.3-8.6-22.8-8.7l-2.5,0l0,2.5c0.2,8.5,3.2,16.5,8.7,22.8&#10;&#9;&#9;&#9;c-7.6-3.7-16.1-4.6-24.3-2.5l-2.5,0.6l0.7,2.4c2.3,8.1,7.4,15.1,14.3,19.8c-8.2-1.6-16.7-0.3-24.1,3.8l-2.2,1.2l1.3,2.2&#10;&#9;&#9;&#9;c4.4,7.3,11,12.6,19,15.4c-8.4,0.6-16.2,4.1-22.3,10l-1.8,1.8l1.8,1.8c6.1,5.9,13.9,9.3,22.3,10c-7.9,2.8-14.6,8.1-19,15.4&#10;&#9;&#9;&#9;l-1.3,2.2l2.2,1.2c5.4,3,11.3,4.5,17.4,4.5c2.3,0,4.5-0.2,6.8-0.7c-6.9,4.7-12,11.6-14.3,19.8l-0.7,2.4l2.5,0.6&#10;&#9;&#9;&#9;c2.9,0.7,5.8,1.1,8.7,1.1c5.4,0,10.7-1.2,15.6-3.6c-5.5,6.3-8.6,14.3-8.7,22.8l0,2.5l2.5,0c8.5-0.2,16.5-3.2,22.8-8.7&#10;&#9;&#9;&#9;c-3.7,7.6-4.6,16.1-2.5,24.3l0.6,2.5l2.4-0.7c8.1-2.3,15.1-7.4,19.8-14.3c-1.6,8.2-0.3,16.7,3.8,24.1l1.2,2.2l2.2-1.3&#10;&#9;&#9;&#9;c7.3-4.4,12.6-11,15.4-19c0.6,8.4,4.1,16.2,10,22.3l1.8,1.8l1.8-1.8c5.9-6.1,9.3-13.9,10-22.3c2.8,7.9,8.1,14.6,15.4,19l2.2,1.3&#10;&#9;&#9;&#9;l1.2-2.2c4.1-7.4,5.4-15.9,3.8-24.1c4.7,6.9,11.6,12,19.8,14.3l2.4,0.7l0.6-2.5c2-8.2,1.1-16.7-2.5-24.3&#10;&#9;&#9;&#9;c6.3,5.5,14.3,8.6,22.8,8.7l2.5,0l0-2.5c-0.2-8.5-3.2-16.5-8.7-22.8c4.9,2.4,10.2,3.6,15.6,3.6c2.9,0,5.8-0.4,8.7-1.1l2.5-0.6&#10;&#9;&#9;&#9;l-0.7-2.4c-2.3-8.1-7.4-15.1-14.3-19.8c2.2,0.4,4.5,0.7,6.8,0.7c6,0,12-1.5,17.4-4.5l2.2-1.2l-1.3-2.2c-4.4-7.3-11-12.6-19-15.4&#10;&#9;&#9;&#9;c8.4-0.6,16.2-4.1,22.3-10L1483.7,622.6z M1404.4,675.5c-1.9-3.5-2.9-7.5-2.9-11.5c2.7,1.8,5.7,2.8,9,3.2c0.8,0.6,1.6,1.3,2.4,2&#10;&#9;&#9;&#9;c0.3,4.6,1.5,9,3.4,13.1C1412.8,679.2,1408.8,676.9,1404.4,675.5z M1389.6,682.4c-1-3.9-0.9-8,0.1-11.9c2.1,2.4,4.8,4.2,7.8,5.4&#10;&#9;&#9;&#9;c0.7,0.8,1.2,1.7,1.8,2.6c-0.9,4.5-0.9,9.1-0.1,13.5C1396.7,688.3,1393.5,685,1389.6,682.4z M1373.5,685.3c0.1-4,1.2-7.9,3.2-11.4&#10;&#9;&#9;&#9;c1.4,2.9,3.6,5.3,6.2,7.2c0.4,0.9,0.8,1.9,1.1,2.9c-2,4.1-3.2,8.6-3.6,13.1C1378.9,692.8,1376.5,688.8,1373.5,685.3z&#10;&#9;&#9;&#9; M1360.8,697.1c-0.3-4.5-1.6-9-3.6-13.2c1.1-3.9,3.2-7.4,6.1-10.2c0.7,3.1,2.1,6.1,4.1,8.6c0.2,1,0.2,2.1,0.3,3.1&#10;&#9;&#9;&#9;C1364.6,688.8,1362.3,692.8,1360.8,697.1z M1341.8,692c0.8-4.5,0.8-9.1-0.1-13.6c2.1-3.4,5-6.3,8.5-8.3c-0.2,3.2,0.4,6.4,1.8,9.3&#10;&#9;&#9;&#9;c-0.1,1-0.3,2-0.5,3.1C1347.6,685,1344.4,688.3,1341.8,692z M1324.9,682.2c2-4.1,3.2-8.6,3.5-13.2c2.9-2.8,6.5-4.8,10.4-5.8&#10;&#9;&#9;&#9;c-1,3-1.3,6.3-0.7,9.5c-0.4,1-0.8,1.9-1.3,2.8C1332.3,677,1328.3,679.3,1324.9,682.2z M1301.2,651.4c3.8-2.6,7-5.8,9.6-9.7&#10;&#9;&#9;&#9;c3.9-1,8-0.9,11.9,0.1c-2.4,2.1-4.2,4.8-5.4,7.8c-0.8,0.7-1.7,1.2-2.6,1.8C1310.2,650.5,1305.6,650.5,1301.2,651.4z M1296.1,632.4&#10;&#9;&#9;&#9;c4.3-1.5,8.3-3.8,11.8-6.9c4,0.1,7.9,1.2,11.4,3.2c-2.9,1.4-5.3,3.6-7.2,6.2c-0.9,0.4-1.9,0.8-2.9,1.1&#10;&#9;&#9;&#9;C1305.1,634,1300.6,632.8,1296.1,632.4z M1336.7,569.8c1.9,3.5,2.9,7.5,2.9,11.5c-2.7-1.8-5.7-2.8-9-3.2c-0.8-0.6-1.6-1.3-2.4-2&#10;&#9;&#9;&#9;c-0.3-4.6-1.5-9-3.4-13.1C1328.3,566,1332.3,568.3,1336.7,569.8z M1351.5,562.9c1,3.9,0.9,8-0.1,11.9c-2.1-2.4-4.8-4.2-7.8-5.4&#10;&#9;&#9;&#9;c-0.7-0.8-1.2-1.7-1.8-2.6c0.9-4.5,0.9-9.1,0.1-13.5C1344.4,557,1347.7,560.3,1351.5,562.9z M1367.7,560c-0.1,4-1.2,7.9-3.2,11.4&#10;&#9;&#9;&#9;c-1.4-2.9-3.6-5.3-6.2-7.2c-0.4-0.9-0.8-1.9-1.1-2.9c2-4.1,3.2-8.6,3.6-13.1C1362.3,552.5,1364.6,556.5,1367.7,560z M1380.4,548.2&#10;&#9;&#9;&#9;c0.3,4.5,1.6,9,3.6,13.2c-1.1,3.9-3.2,7.4-6.1,10.2c-0.7-3.1-2.1-6.1-4.1-8.6c-0.2-1-0.2-2.1-0.3-3.1&#10;&#9;&#9;&#9;C1376.6,556.4,1378.9,552.5,1380.4,548.2z M1399.3,553.3c-0.8,4.5-0.8,9.1,0.1,13.6c-2.1,3.4-5,6.3-8.5,8.3&#10;&#9;&#9;&#9;c0.2-3.2-0.4-6.4-1.8-9.3c0.1-1,0.3-2,0.5-3.1C1393.5,560.2,1396.7,557,1399.3,553.3z M1416.3,563.1c-2,4.1-3.2,8.6-3.5,13.2&#10;&#9;&#9;&#9;c-2.9,2.8-6.5,4.8-10.4,5.8c1-3,1.3-6.3,0.7-9.5c0.4-1,0.8-1.9,1.3-2.8C1408.9,568.3,1412.8,566,1416.3,563.1z M1433.3,594.5&#10;&#9;&#9;&#9;c2.2,0,4.4-0.2,6.6-0.6c-3.8,2.6-7,5.9-9.6,9.7c-3.9,1-8,0.9-11.9-0.1c2.4-2.1,4.2-4.8,5.4-7.8c0.8-0.7,1.7-1.3,2.6-1.8&#10;&#9;&#9;&#9;C1428.7,594.3,1431,594.5,1433.3,594.5z M1379.3,670.6c-0.2-0.6-0.4-1.2-0.6-1.9c-0.6-2.3-0.6-4.6-0.2-6.9c0.5-1.1,0.8-2.1,1-3.3&#10;&#9;&#9;&#9;c2.7,2.2,4.6,5.2,5.4,8.6c0.8,3.2,0.6,6.6-0.6,9.7C1383,674.6,1381.3,672.5,1379.3,670.6z M1361.8,574.7c0.2,0.6,0.4,1.2,0.6,1.9&#10;&#9;&#9;&#9;c0.6,2.3,0.6,4.6,0.2,6.9c-0.5,1-0.8,2.1-1,3.3c-2.7-2.2-4.6-5.2-5.4-8.6c-0.8-3.2-0.6-6.6,0.6-9.7&#10;&#9;&#9;&#9;C1358.1,570.7,1359.8,572.8,1361.8,574.7z M1416.5,639c-0.6-0.1-1.3-0.2-1.9-0.4c-2.3-0.7-4.3-1.8-6.1-3.3&#10;&#9;&#9;&#9;c-0.7-0.9-1.5-1.8-2.3-2.5c3.2-1.2,6.8-1.4,10.2-0.4c3.2,0.9,6,2.8,8.1,5.3C1421.8,637.8,1419.1,638.2,1416.5,639z M1355.4,676.5&#10;&#9;&#9;&#9;c0-2.7-0.4-5.3-1.3-7.9c0.1-0.6,0.2-1.3,0.4-1.9c0.7-2.3,1.8-4.3,3.3-6.1c0.9-0.7,1.8-1.5,2.5-2.3c1.2,3.2,1.4,6.8,0.4,10.2&#10;&#9;&#9;&#9;C1359.8,671.7,1358,674.4,1355.4,676.5z M1326.5,643.5c0.5-0.4,1.1-0.7,1.6-1.1c2.1-1.1,4.3-1.8,6.6-2c0.7,0.1,1.4,0.2,2.1,0.2&#10;&#9;&#9;&#9;c0.4,0,0.8,0,1.3-0.1c-1.4,3.2-3.8,5.8-6.9,7.5c-2.9,1.6-6.2,2.3-9.5,1.9C1323.6,648.1,1325.2,645.9,1326.5,643.5z M1324.6,606.2&#10;&#9;&#9;&#9;c0.6,0.1,1.3,0.2,1.9,0.4c2.3,0.7,4.3,1.8,6.1,3.3c0.7,0.9,1.5,1.8,2.3,2.5c-3.2,1.2-6.8,1.4-10.2,0.4c-3.2-0.9-6-2.8-8.1-5.3&#10;&#9;&#9;&#9;C1319.4,607.5,1322,607.1,1324.6,606.2z M1385.7,568.8c0,2.7,0.4,5.3,1.3,7.9c-0.1,0.6-0.2,1.3-0.4,1.9c-0.7,2.3-1.8,4.3-3.3,6.1&#10;&#9;&#9;&#9;c-0.9,0.7-1.8,1.5-2.5,2.3c-1.2-3.2-1.4-6.8-0.4-10.2C1381.3,573.6,1383.2,570.8,1385.7,568.8z M1414.6,601.7&#10;&#9;&#9;&#9;c-0.5,0.4-1.1,0.7-1.6,1.1c-2.1,1.1-4.3,1.8-6.6,2c-1.1-0.2-2.3-0.2-3.4-0.1c1.4-3.2,3.8-5.8,6.9-7.5h0c2.9-1.6,6.2-2.3,9.5-1.9&#10;&#9;&#9;&#9;C1417.5,597.1,1415.9,599.3,1414.6,601.7z M1404,610.9c-0.7,0.5-1.5,1-2.4,1.3c-2.3,0.9-4.8,1.1-7.1,0.5c1.2-2.1,3.1-3.7,5.4-4.7&#10;&#9;&#9;&#9;c0.1,0,0.2-0.1,0.3-0.1c1.6,0.4,3.3,0.6,4.9,0.6c0.4,0,0.8,0,1.2,0c0,0-0.1,0.1-0.1,0.1C1405.4,609.3,1404.7,610.1,1404,610.9z&#10;&#9;&#9;&#9; M1405.9,619.9c-0.8,0.3-1.7,0.5-2.6,0.7c-2.4,0.3-4.9-0.2-7-1.3c1.7-1.7,4-2.8,6.4-3.1c0.1,0,0.2,0,0.4,0c1.8,1,3.8,1.7,5.8,2.1&#10;&#9;&#9;&#9;c0,0-0.1,0.1-0.1,0.1C1407.7,618.8,1406.8,619.3,1405.9,619.9z M1405.4,629.2c-0.9,0.1-1.8,0.1-2.7,0c-2.4-0.3-4.7-1.4-6.4-3.1&#10;&#9;&#9;&#9;c2.1-1.2,4.6-1.7,7-1.3c0.1,0,0.2,0,0.3,0.1c1.5,1.5,3.2,2.7,5,3.6c0,0-0.1,0-0.1,0.1C1407.4,628.6,1406.4,628.8,1405.4,629.2z&#10;&#9;&#9;&#9; M1402.5,638c-0.9-0.1-1.8-0.4-2.6-0.7c-2.3-0.9-4.2-2.6-5.4-4.7c2.4-0.6,4.8-0.4,7.1,0.5c0.1,0,0.2,0.1,0.3,0.1&#10;&#9;&#9;&#9;c1.1,1.8,2.4,3.4,3.9,4.7c0,0-0.1,0-0.1,0C1404.6,637.9,1403.6,637.9,1402.5,638z M1397.4,645.7c-0.8-0.4-1.6-0.8-2.3-1.4&#10;&#9;&#9;&#9;c-2-1.5-3.4-3.6-4-5.9c2.4,0,4.8,0.8,6.7,2.4c0.1,0.1,0.2,0.2,0.3,0.2c0.6,2,1.4,3.9,2.6,5.6c0,0-0.1,0-0.1,0&#10;&#9;&#9;&#9;C1399.5,646.2,1398.5,645.9,1397.4,645.7z M1390.6,651.9c-0.7-0.6-1.3-1.2-1.9-1.9c-1.5-2-2.3-4.3-2.3-6.7c2.3,0.7,4.4,2.1,5.9,4&#10;&#9;&#9;&#9;c0.1,0.1,0.1,0.2,0.2,0.3c0,2.1,0.4,4.1,1,6.1c0,0-0.1,0-0.1-0.1C1392.4,652.9,1391.5,652.3,1390.6,651.9z M1382.3,656&#10;&#9;&#9;&#9;c-0.5-0.7-1-1.5-1.3-2.4c-0.9-2.3-1.1-4.8-0.5-7.1c2.1,1.2,3.7,3.1,4.7,5.4c0,0.1,0.1,0.2,0.1,0.3c-0.5,2-0.7,4.1-0.6,6.1&#10;&#9;&#9;&#9;c0,0-0.1-0.1-0.1-0.1C1383.9,657.5,1383.1,656.8,1382.3,656z M1374.9,660.9c0,0-0.1-0.1-0.1-0.1c-0.4-1-1-1.9-1.6-2.8&#10;&#9;&#9;&#9;c-0.3-0.8-0.5-1.7-0.7-2.6c-0.3-2.4,0.2-4.9,1.3-7c1.7,1.7,2.8,4,3.1,6.4c0,0.1,0,0.2,0,0.3C1376,656.9,1375.3,658.9,1374.9,660.9&#10;&#9;&#9;&#9;z M1355.2,657.9c0,0,0-0.1,0-0.1c0.1-1.1,0.1-2.1,0-3.2c0.1-0.9,0.4-1.8,0.7-2.6c0.9-2.3,2.6-4.2,4.7-5.4c0.6,2.4,0.4,4.8-0.5,7.1&#10;&#9;&#9;&#9;c0,0.1-0.1,0.2-0.1,0.3C1358.2,655.1,1356.6,656.4,1355.2,657.9z M1346.6,652.8c0,0,0-0.1,0-0.1c0.4-1,0.7-2,0.9-3.1&#10;&#9;&#9;&#9;c0.4-0.8,0.8-1.6,1.4-2.3c1.5-2,3.6-3.4,5.9-4c0,2.4-0.8,4.8-2.4,6.7c-0.1,0.1-0.2,0.2-0.2,0.3&#10;&#9;&#9;&#9;C1350.2,650.8,1348.3,651.6,1346.6,652.8z M1335.2,625.3c0.8-0.3,1.7-0.5,2.6-0.7c2.4-0.3,4.9,0.2,7,1.3c-1.7,1.7-4,2.8-6.4,3.1h0&#10;&#9;&#9;&#9;c-0.1,0-0.2,0-0.3,0c-1.8-1-3.8-1.7-5.8-2.1c0,0,0.1-0.1,0.1-0.1C1333.4,626.5,1334.4,625.9,1335.2,625.3z M1335.7,616.1&#10;&#9;&#9;&#9;c0.9-0.1,1.8-0.1,2.7,0c2.4,0.3,4.7,1.4,6.4,3.1c-2.1,1.2-4.6,1.7-7,1.3c-0.1,0-0.2,0-0.3-0.1c-1.5-1.5-3.2-2.7-5-3.6&#10;&#9;&#9;&#9;c0,0,0.1,0,0.1-0.1C1333.7,616.7,1334.7,616.5,1335.7,616.1z M1337.2,607.4c0.5,0,0.9,0,1.4-0.1c0.9,0.1,1.8,0.4,2.6,0.7&#10;&#9;&#9;&#9;c2.3,0.9,4.2,2.6,5.4,4.7c-2.4,0.6-4.8,0.4-7.1-0.5c-0.1,0-0.2-0.1-0.3-0.1c-1.1-1.8-2.4-3.4-3.9-4.7c0.1,0,0.1,0,0.2,0&#10;&#9;&#9;&#9;C1336,607.3,1336.6,607.4,1337.2,607.4z M1343.7,599.6c0.8,0.4,1.6,0.8,2.3,1.4c2,1.5,3.4,3.6,4,5.9c-2.4,0-4.8-0.8-6.7-2.4l0,0&#10;&#9;&#9;&#9;c-0.1-0.1-0.2-0.2-0.3-0.2c-0.6-2-1.4-3.9-2.6-5.6c0,0,0.1,0,0.1,0C1341.6,599.1,1342.6,599.4,1343.7,599.6z M1350.6,593.4&#10;&#9;&#9;&#9;c0.7,0.6,1.3,1.2,1.9,1.9c1.5,2,2.3,4.3,2.3,6.7c-2.3-0.7-4.4-2.1-5.9-4c-0.1-0.1-0.1-0.2-0.2-0.3c0-2.1-0.4-4.1-1-6.1&#10;&#9;&#9;&#9;c0,0,0.1,0,0.1,0.1C1348.7,592.4,1349.6,592.9,1350.6,593.4z M1358.8,589.2c0.5,0.7,1,1.5,1.3,2.4c0.9,2.3,1.1,4.8,0.5,7.1&#10;&#9;&#9;&#9;c-2.1-1.2-3.7-3.1-4.7-5.4c0-0.1-0.1-0.2-0.1-0.3c0.5-2,0.7-4.1,0.6-6.1c0,0,0.1,0.1,0.1,0.1&#10;&#9;&#9;&#9;C1357.3,587.8,1358,588.5,1358.8,589.2z M1366.2,584.4c0,0,0.1,0.1,0.1,0.1c0.4,1,1,1.9,1.6,2.8c0.3,0.8,0.5,1.7,0.7,2.6&#10;&#9;&#9;&#9;c0.3,2.4-0.2,4.9-1.3,7c-1.7-1.7-2.8-4-3.1-6.4c0-0.1,0-0.2,0-0.3C1365.1,588.4,1365.8,586.4,1366.2,584.4z M1385.9,587.4&#10;&#9;&#9;&#9;c0,0,0,0.1,0,0.1c-0.1,1.1-0.1,2.1,0,3.2c-0.1,0.9-0.4,1.8-0.7,2.6c-0.9,2.3-2.6,4.2-4.7,5.4c-0.6-2.4-0.4-4.8,0.5-7.1&#10;&#9;&#9;&#9;c0-0.1,0.1-0.2,0.1-0.3C1383,590.2,1384.5,588.9,1385.9,587.4z M1394.5,592.5c0,0,0,0.1,0,0.1c-0.4,1-0.7,2-0.9,3.1&#10;&#9;&#9;&#9;c-0.4,0.8-0.8,1.6-1.4,2.3c-1.5,2-3.6,3.4-5.9,4c0-2.4,0.8-4.8,2.4-6.7v0c0.1-0.1,0.1-0.2,0.2-0.3&#10;&#9;&#9;&#9;C1390.9,594.5,1392.8,593.7,1394.5,592.5z M1393.6,618.2c-0.5,0.3-1,0.5-1.6,0.6c-1.6,0.4-3.3,0.3-4.7-0.4c1-1.3,2.4-2.1,4-2.5&#10;&#9;&#9;&#9;c1.5-0.4,3.1-0.3,4.5,0.3C1395,616.8,1394.3,617.5,1393.6,618.2z M1394,624.4c-0.6,0.1-1.1,0.2-1.7,0.2c-1.6,0-3.2-0.6-4.5-1.6&#10;&#9;&#9;&#9;c1.3-0.9,2.9-1.4,4.5-1.4c1.6,0,3,0.5,4.3,1.4C1395.7,623.3,1394.8,623.8,1394,624.4z M1390,635.8c-0.5-0.2-1.1-0.4-1.6-0.7&#10;&#9;&#9;&#9;c-1.4-0.8-2.5-2.1-3.1-3.6c1.6-0.2,3.2,0.2,4.6,1c1.3,0.8,2.4,2,3,3.4C1392,635.8,1391,635.8,1390,635.8z M1385.9,640.4&#10;&#9;&#9;&#9;c-0.5-0.3-0.9-0.7-1.3-1.1c-1.1-1.2-1.9-2.7-2.1-4.3c1.6,0.3,3.1,1,4.2,2.2c1.1,1.1,1.8,2.5,2,4.1&#10;&#9;&#9;&#9;C1387.9,640.9,1386.9,640.6,1385.9,640.4z M1380.8,643.8c-0.4-0.4-0.7-0.9-1-1.4c-0.8-1.4-1.1-3.1-0.9-4.7&#10;&#9;&#9;&#9;c1.5,0.7,2.7,1.8,3.5,3.2c0.8,1.4,1.1,2.9,0.9,4.4C1382.5,644.8,1381.7,644.2,1380.8,643.8z M1373.7,637.6&#10;&#9;&#9;&#9;c-0.5,0.9-0.9,1.9-1.1,2.9c-0.4-0.9-1-1.8-1.7-2.5l-0.6-0.7l-0.6,0.6c-0.7,0.7-1.3,1.6-1.8,2.5c-0.2-1-0.5-2-1-2.9l-0.4-0.8&#10;&#9;&#9;&#9;l-0.8,0.5c-0.9,0.5-1.7,1.2-2.3,1.9c0.1-1,0.1-2-0.2-3l-0.2-0.9l-0.9,0.2c-1,0.3-1.9,0.7-2.8,1.3c0.4-0.9,0.6-1.9,0.6-3l0-0.9&#10;&#9;&#9;&#9;l-0.9,0c-1,0-2,0.2-3,0.5c0.6-0.8,1.1-1.7,1.4-2.7l0.3-0.9l-0.9-0.2c-1-0.3-2-0.4-3-0.3c0.8-0.6,1.5-1.4,2-2.3l0.5-0.8l-0.8-0.5&#10;&#9;&#9;&#9;c-0.9-0.5-1.9-0.9-2.9-1.1c0.9-0.4,1.8-1,2.5-1.7l0.7-0.6l-0.6-0.6c-0.7-0.7-1.6-1.3-2.5-1.8c1-0.2,2-0.5,2.9-1l0.8-0.4l-0.5-0.8&#10;&#9;&#9;&#9;c-0.5-0.9-1.2-1.7-1.9-2.3c0.3,0,0.6,0.1,0.9,0.1c0.7,0,1.4-0.1,2.1-0.2l0.9-0.2l-0.2-0.9c-0.3-1-0.7-1.9-1.3-2.8&#10;&#9;&#9;&#9;c0.9,0.4,1.9,0.6,3,0.6l0.9,0l0-0.9c0-1-0.2-2-0.5-3c0.8,0.6,1.7,1.1,2.7,1.4l0.9,0.3l0.2-0.9c0.3-1,0.4-2,0.3-3&#10;&#9;&#9;&#9;c0.6,0.8,1.4,1.5,2.3,2l0.8,0.5l0.5-0.8c0.5-0.9,0.9-1.9,1.1-2.9c0.4,0.9,1,1.8,1.7,2.5l0.6,0.7l0.6-0.6c0.7-0.7,1.3-1.6,1.8-2.5&#10;&#9;&#9;&#9;c0.2,1,0.5,2,1,2.9l0.4,0.8l0.8-0.5c0.9-0.5,1.7-1.2,2.3-1.9c-0.1,1-0.1,2,0.2,3l0.2,0.9l0.9-0.2c1-0.3,1.9-0.7,2.8-1.3&#10;&#9;&#9;&#9;c-0.4,0.9-0.6,1.9-0.6,3l0,0.9l0.9,0c1,0,2-0.2,3-0.5c-0.6,0.8-1.1,1.7-1.4,2.7l-0.3,0.9l0.9,0.2c0.8,0.2,1.6,0.3,2.4,0.3&#10;&#9;&#9;&#9;c0.2,0,0.4,0,0.6,0c-0.8,0.6-1.5,1.4-2,2.3l-0.5,0.8l0.8,0.5c0.9,0.5,1.9,0.9,2.9,1.1c-0.9,0.4-1.8,1-2.6,1.7l-0.7,0.6l0.6,0.6&#10;&#9;&#9;&#9;c0.7,0.7,1.6,1.3,2.5,1.8c-1,0.2-2,0.5-2.9,1l-0.8,0.4l0.5,0.8c0.5,0.9,1.2,1.7,1.9,2.3c-1-0.1-2-0.1-3,0.2l-0.9,0.2l0.2,0.9&#10;&#9;&#9;&#9;c0.3,1,0.7,1.9,1.3,2.8c-0.9-0.4-1.9-0.6-3-0.6l-0.9,0l0,0.9c0,1,0.2,2,0.5,3c-0.8-0.6-1.7-1.1-2.7-1.4l-0.9-0.3l-0.2,0.9&#10;&#9;&#9;&#9;c-0.3,1-0.4,2-0.3,3c-0.6-0.8-1.4-1.5-2.3-2l-0.8-0.5L1373.7,637.6z M1360.6,642.1L1360.6,642.1c-0.8,1.3-2,2.4-3.4,3&#10;&#9;&#9;&#9;c0.1-1,0.2-2,0.1-3c0.2-0.5,0.4-1.1,0.7-1.6c0.8-1.4,2.1-2.5,3.6-3.1C1361.8,639,1361.5,640.7,1360.6,642.1z M1362.8,644.8&#10;&#9;&#9;&#9;c0-0.6,0.1-1.1,0.3-1.7c0.5-1.6,1.4-2.9,2.7-3.9c0.6,1.5,0.6,3.2,0.2,4.8c-0.4,1.5-1.3,2.8-2.5,3.8&#10;&#9;&#9;&#9;C1363.4,646.8,1363.2,645.8,1362.8,644.8z M1347.5,627c0.5-0.3,1-0.5,1.6-0.6c1.6-0.4,3.3-0.3,4.7,0.4c-1,1.3-2.4,2.1-4,2.5&#10;&#9;&#9;&#9;c-1.5,0.4-3.1,0.3-4.5-0.3C1346.1,628.5,1346.8,627.8,1347.5,627z M1347.1,620.9c0.6-0.1,1.1-0.2,1.7-0.2c1.6,0,3.2,0.6,4.5,1.6&#10;&#9;&#9;&#9;c-1.3,0.9-2.9,1.4-4.5,1.4c-1.6,0-3-0.5-4.3-1.4C1345.4,622,1346.3,621.5,1347.1,620.9z M1350.2,609.5c0.3,0,0.6,0,1,0&#10;&#9;&#9;&#9;c0.5,0.2,1,0.4,1.5,0.7c1.4,0.8,2.5,2.1,3.1,3.6c-1.6,0.2-3.2-0.2-4.6-1c-1.3-0.8-2.4-2-3-3.4&#10;&#9;&#9;&#9;C1348.8,609.4,1349.5,609.5,1350.2,609.5z M1355.2,604.9c0.5,0.3,0.9,0.7,1.3,1.1c1.1,1.2,1.9,2.7,2.1,4.3c-1.6-0.3-3.1-1-4.2-2.2&#10;&#9;&#9;&#9;c-1.1-1.1-1.8-2.5-2-4C1353.3,604.4,1354.2,604.7,1355.2,604.9z M1360.3,601.5c0.4,0.4,0.7,0.9,1,1.4c0.8,1.4,1.1,3.1,0.9,4.7&#10;&#9;&#9;&#9;c-1.5-0.7-2.7-1.8-3.5-3.2c-0.8-1.4-1.1-2.9-0.9-4.4C1358.6,600.5,1359.4,601,1360.3,601.5z M1348.4,614.9c0.6,0,1.1,0.1,1.7,0.3&#10;&#9;&#9;&#9;c1.6,0.5,2.9,1.4,3.9,2.7c-1.5,0.6-3.2,0.6-4.8,0.2h0c-1.5-0.4-2.8-1.3-3.8-2.5C1346.4,615.5,1347.4,615.2,1348.4,614.9z&#10;&#9;&#9;&#9; M1349.4,632.9c0.4-0.4,0.9-0.7,1.4-1c1.4-0.8,3.1-1.1,4.7-0.9c-0.7,1.5-1.8,2.7-3.2,3.5c-1.4,0.8-2.9,1.1-4.4,0.9&#10;&#9;&#9;&#9;C1348.4,634.6,1349,633.8,1349.4,632.9z M1380.5,603.2c0.8-1.3,2-2.4,3.4-3c-0.1,1-0.2,2-0.1,3c-0.2,0.5-0.4,1.1-0.7,1.6&#10;&#9;&#9;&#9;c-0.8,1.4-2.1,2.5-3.6,3.1C1379.3,606.2,1379.7,604.6,1380.5,603.2z M1378.3,600.4c0,0.6-0.1,1.1-0.3,1.7&#10;&#9;&#9;&#9;c-0.5,1.6-1.4,2.9-2.7,3.9c-0.6-1.5-0.6-3.2-0.2-4.8h0c0.4-1.5,1.3-2.8,2.5-3.8C1377.7,598.5,1378,599.5,1378.3,600.4z&#10;&#9;&#9;&#9; M1392.8,630.4c-0.6,0-1.1-0.1-1.7-0.3c-1.6-0.5-2.9-1.4-3.9-2.7c1.5-0.6,3.2-0.6,4.8-0.2c1.5,0.4,2.8,1.3,3.8,2.5&#10;&#9;&#9;&#9;C1394.7,629.8,1393.7,630,1392.8,630.4z M1391.7,612.4c-0.4,0.4-0.9,0.7-1.4,1c-1.4,0.8-3.1,1.1-4.7,0.9c0.7-1.5,1.8-2.7,3.2-3.5&#10;&#9;&#9;&#9;h0c1.4-0.8,2.9-1.1,4.4-0.9C1392.7,610.7,1392.2,611.5,1391.7,612.4z M1388.3,607.3c-0.3,0.5-0.7,0.9-1.1,1.3&#10;&#9;&#9;&#9;c-1.2,1.1-2.7,1.9-4.3,2.1c0.3-1.6,1-3.1,2.2-4.2c1.1-1.1,2.5-1.8,4.1-2C1388.8,605.3,1388.5,606.3,1388.3,607.3z M1372.4,600.9&#10;&#9;&#9;&#9;c0,1.6-0.6,3.2-1.6,4.5c-0.9-1.3-1.4-2.9-1.4-4.5c0-1.6,0.5-3,1.4-4.3c0.4,0.9,0.8,1.8,1.4,2.6&#10;&#9;&#9;&#9;C1372.4,599.8,1372.5,600.3,1372.4,600.9z M1366.2,599.6c0.3,0.5,0.5,1,0.6,1.6c0.4,1.6,0.3,3.3-0.4,4.7c-1.3-1-2.1-2.4-2.5-4&#10;&#9;&#9;&#9;c-0.4-1.5-0.3-3.1,0.3-4.5C1364.7,598.2,1365.4,598.9,1366.2,599.6z M1352.8,638c0.3-0.5,0.7-0.9,1.1-1.3c1.2-1.1,2.7-1.9,4.3-2.1&#10;&#9;&#9;&#9;c-0.3,1.6-1,3.1-2.2,4.2c-1.1,1.1-2.5,1.8-4.1,2C1352.3,639.9,1352.6,639,1352.8,638z M1368.7,644.4c0-1.6,0.6-3.2,1.6-4.5&#10;&#9;&#9;&#9;c0.9,1.3,1.4,2.9,1.4,4.5c0,1.6-0.5,3-1.4,4.3c-0.4-0.9-0.8-1.8-1.4-2.6C1368.7,645.5,1368.7,645,1368.7,644.4z M1375,645.7&#10;&#9;&#9;&#9;c-0.3-0.5-0.5-1-0.6-1.6c-0.4-1.6-0.3-3.2,0.4-4.7c1.3,1,2.1,2.4,2.5,4c0.4,1.5,0.3,3.1-0.3,4.5&#10;&#9;&#9;&#9;C1376.4,647.1,1375.7,646.4,1375,645.7z M1337.2,634.4c0.7-0.5,1.5-1,2.4-1.3c2.3-0.9,4.8-1.1,7.1-0.5c-1.2,2.1-3.1,3.7-5.4,4.7&#10;&#9;&#9;&#9;c-0.1,0-0.2,0.1-0.3,0.1c-2-0.5-4.1-0.7-6.1-0.6c0,0,0.1-0.1,0.1-0.1C1335.7,635.9,1336.4,635.2,1337.2,634.4z M1401.5,599.7&#10;&#9;&#9;&#9;c0,0,0,0.1-0.1,0.1c-0.6,0.9-1.2,1.8-1.6,2.8c-0.6,0.7-1.2,1.3-1.9,1.9c-2,1.5-4.3,2.3-6.7,2.3c0.7-2.3,2.1-4.4,4-5.9&#10;&#9;&#9;&#9;c0.1-0.1,0.2-0.1,0.3-0.2C1397.5,600.7,1399.5,600.4,1401.5,599.7z M1398.3,582.5c-0.3,0.6-0.6,1.2-0.9,1.7c-1.2,2-2.8,3.7-4.7,5&#10;&#9;&#9;&#9;c-1.1,0.4-2.1,1-3,1.6c-0.3-3.5,0.4-6.9,2.3-9.9c1.7-2.9,4.2-5.1,7.2-6.4C1398.5,577.1,1398.2,579.8,1398.3,582.5z M1376.2,584.6&#10;&#9;&#9;&#9;c0,0,0,0.1,0.1,0.1c0.2,1.1,0.4,2.1,0.8,3.1c0.1,0.9,0.1,1.8,0,2.7c-0.3,2.4-1.4,4.7-3.1,6.4c-1.2-2.1-1.7-4.6-1.3-7&#10;&#9;&#9;&#9;c0-0.1,0-0.2,0.1-0.3C1374.1,588.1,1375.3,586.4,1376.2,584.6z M1339.6,645.5c0,0,0-0.1,0.1-0.1c0.6-0.9,1.2-1.8,1.6-2.8&#10;&#9;&#9;&#9;c0.6-0.7,1.2-1.3,1.9-1.9c2-1.5,4.3-2.3,6.7-2.3c-0.7,2.3-2.1,4.4-4,5.9c-0.1,0.1-0.2,0.1-0.3,0.2&#10;&#9;&#9;&#9;C1343.6,644.5,1341.6,644.9,1339.6,645.5z M1342.8,662.8c0.3-0.6,0.6-1.2,0.9-1.7c1.2-2,2.8-3.7,4.7-5c1.1-0.4,2.1-1,3-1.6&#10;&#9;&#9;&#9;c0.3,3.5-0.4,6.9-2.3,9.9c-1.7,2.9-4.2,5.1-7.2,6.4C1342.7,668.2,1343,665.5,1342.8,662.8z M1364.9,660.7c0,0,0-0.1-0.1-0.1&#10;&#9;&#9;&#9;c-0.2-1.1-0.4-2.1-0.8-3.1c-0.1-0.9-0.1-1.8,0-2.7c0.3-2.4,1.4-4.7,3.1-6.4c1.2,2.1,1.7,4.6,1.3,7c0,0.1,0,0.2-0.1,0.3&#10;&#9;&#9;&#9;C1367,657.2,1365.8,658.9,1364.9,660.7z M1407.7,591c-0.4,0.5-0.8,1-1.3,1.4c-1.7,1.6-3.7,2.9-5.9,3.6c-1.1,0.1-2.3,0.4-3.3,0.8&#10;&#9;&#9;&#9;c0.6-3.4,2.2-6.6,4.7-9h0c2.4-2.3,5.4-3.8,8.7-4.3C1409.3,585.9,1408.3,588.4,1407.7,591z M1374.6,576c0,2.4-0.6,4.6-1.6,6.7&#10;&#9;&#9;&#9;c-0.7,0.9-1.3,1.9-1.8,2.9c-2-2.8-3.1-6.2-3-9.7c0.1-3.3,1.1-6.5,3.1-9.2c0.7,2.6,1.8,5.1,3.3,7.3&#10;&#9;&#9;&#9;C1374.6,574.7,1374.6,575.3,1374.6,576z M1350.7,580.2c1.1,2.1,1.8,4.3,2,6.6c-0.2,1.1-0.2,2.3-0.1,3.4c-3.2-1.4-5.8-3.8-7.5-6.9&#10;&#9;&#9;&#9;c-1.6-2.9-2.3-6.2-1.9-9.5c1.9,1.9,4.1,3.5,6.5,4.7C1350,579.1,1350.4,579.6,1350.7,580.2z M1339,585.5c0.5,0.4,1,0.8,1.4,1.3&#10;&#9;&#9;&#9;c1.6,1.7,2.9,3.7,3.6,5.9c0.1,1.1,0.4,2.3,0.8,3.3c-3.4-0.6-6.6-2.2-9-4.7c-2.3-2.4-3.8-5.4-4.3-8.7&#10;&#9;&#9;&#9;C1333.8,583.9,1336.3,584.9,1339,585.5z M1329.3,594.9c0.4,0,0.8,0,1.2,0c0.6,0.3,1.2,0.6,1.7,0.9c2,1.2,3.7,2.8,5,4.7&#10;&#9;&#9;&#9;c0.4,1.1,1,2.1,1.6,3c-3.5,0.3-6.9-0.4-9.9-2.3c-2.9-1.7-5.1-4.2-6.4-7.2C1324.7,594.6,1326.9,594.9,1329.3,594.9z M1321.9,618.7&#10;&#9;&#9;&#9;c0.6-0.1,1.3-0.1,1.9-0.1c2.4,0,4.6,0.6,6.7,1.6c0.9,0.7,1.9,1.3,2.9,1.8c-2.8,2-6.2,3.1-9.7,3c-3.3-0.1-6.5-1.1-9.2-3.1&#10;&#9;&#9;&#9;C1317.2,621.3,1319.6,620.2,1321.9,618.7z M1322.6,631.4c0.6-0.2,1.2-0.4,1.9-0.6c2.3-0.6,4.6-0.6,6.9-0.2c1.1,0.5,2.2,0.8,3.3,1&#10;&#9;&#9;&#9;c-2.2,2.7-5.2,4.6-8.6,5.4h0c-3.2,0.8-6.6,0.6-9.7-0.6C1318.6,635.1,1320.7,633.4,1322.6,631.4z M1333.4,654.2&#10;&#9;&#9;&#9;c0.4-0.5,0.8-1,1.3-1.4c1.7-1.6,3.7-2.9,5.9-3.6c1.1-0.1,2.3-0.4,3.4-0.8c-0.6,3.4-2.2,6.6-4.7,9c-2.4,2.3-5.4,3.8-8.7,4.3&#10;&#9;&#9;&#9;C1331.8,659.4,1332.8,656.9,1333.4,654.2z M1366.5,669.3c0-2.4,0.6-4.6,1.6-6.7c0.7-0.9,1.3-1.9,1.8-2.9c2,2.8,3.1,6.2,3,9.7&#10;&#9;&#9;&#9;c-0.1,3.3-1.1,6.5-3.1,9.2c-0.7-2.6-1.8-5.1-3.3-7.3C1366.6,670.6,1366.5,670,1366.5,669.3z M1390.4,665.1c-1.1-2.1-1.8-4.3-2-6.6&#10;&#9;&#9;&#9;c0.2-1.1,0.2-2.3,0.1-3.4c3.2,1.4,5.8,3.8,7.5,6.9c1.6,2.9,2.3,6.2,1.9,9.5c-1.9-1.9-4.1-3.5-6.5-4.7&#10;&#9;&#9;&#9;C1391.1,666.2,1390.7,665.6,1390.4,665.1z M1402.2,659.8c-0.5-0.4-1-0.8-1.4-1.3c-1.6-1.7-2.9-3.7-3.6-5.9&#10;&#9;&#9;&#9;c-0.1-1.1-0.4-2.3-0.8-3.3c3.4,0.6,6.6,2.2,9,4.7c2.3,2.4,3.8,5.4,4.3,8.7C1407.3,661.4,1404.8,660.4,1402.2,659.8z M1410.7,650.4&#10;&#9;&#9;&#9;c-0.6-0.3-1.2-0.6-1.7-0.9c-2-1.2-3.7-2.8-5-4.7c-0.4-1.1-1-2.1-1.6-3c3.5-0.3,6.9,0.4,9.9,2.3c2.9,1.7,5.1,4.2,6.4,7.2&#10;&#9;&#9;&#9;C1416.1,650.5,1413.4,650.2,1410.7,650.4z M1419.2,626.6c-0.6,0.1-1.3,0.1-2,0.1c-2.4,0-4.6-0.6-6.7-1.6c-0.9-0.7-1.9-1.3-2.9-1.8&#10;&#9;&#9;&#9;c2.8-2,6.2-3.1,9.7-3c3.3,0.1,6.5,1.1,9.2,3.1C1424,624,1421.5,625.1,1419.2,626.6z M1418.5,613.9c-0.6,0.2-1.2,0.4-1.9,0.6&#10;&#9;&#9;&#9;c-2.3,0.6-4.6,0.6-6.9,0.2c-1-0.5-2.1-0.8-3.3-1c2.2-2.7,5.2-4.6,8.6-5.4c3.2-0.8,6.6-0.6,9.7,0.6&#10;&#9;&#9;&#9;C1422.5,610.2,1420.4,611.9,1418.5,613.9z M1423.4,588.8c-3.5,1.9-7.5,2.9-11.5,2.9c1.8-2.7,2.8-5.7,3.2-9c0.6-0.8,1.3-1.6,2-2.4&#10;&#9;&#9;&#9;c4.6-0.3,9-1.5,13.1-3.4C1427.2,580.4,1424.9,584.4,1423.4,588.8z M1324.2,580.4c2.8,2.9,4.8,6.5,5.8,10.4c-3-1-6.3-1.3-9.5-0.7&#10;&#9;&#9;&#9;c-1-0.4-1.9-0.8-2.8-1.3c-1.5-4.4-3.8-8.3-6.7-11.8C1315.1,578.9,1319.6,580.1,1324.2,580.4z M1314.8,593.8c3.4,2.1,6.3,5,8.3,8.5&#10;&#9;&#9;&#9;c-3.2-0.2-6.4,0.4-9.3,1.8c-1-0.1-2-0.3-3.1-0.5c-2.6-3.8-5.8-7.1-9.6-9.6c2.2,0.4,4.4,0.6,6.6,0.6&#10;&#9;&#9;&#9;C1310.1,594.5,1312.5,594.3,1314.8,593.8z M1309.3,609.2c3.9,1.1,7.4,3.2,10.2,6.1c-3.1,0.7-6.1,2.1-8.6,4.1c-1,0.2-2,0.2-3.1,0.3&#10;&#9;&#9;&#9;c-3.5-3-7.5-5.3-11.7-6.8C1300.6,612.5,1305.1,611.3,1309.3,609.2z M1317.7,656.5c3.5-1.9,7.5-2.9,11.5-2.9&#10;&#9;&#9;&#9;c-1.8,2.7-2.8,5.7-3.2,9c-0.6,0.8-1.3,1.6-2,2.4c-4.6,0.3-9,1.5-13.1,3.4C1314,664.9,1316.3,660.9,1317.7,656.5z M1416.9,664.9&#10;&#9;&#9;&#9;c-2.8-2.9-4.8-6.5-5.8-10.4c2,0.7,4.1,1,6.2,1c1.1,0,2.2-0.1,3.3-0.3c1,0.4,1.9,0.8,2.8,1.3c1.5,4.4,3.8,8.3,6.7,11.8&#10;&#9;&#9;&#9;C1426,666.4,1421.6,665.2,1416.9,664.9z M1426.3,651.5c-3.4-2.1-6.3-5-8.3-8.5c0.4,0,0.7,0,1.1,0c2.8,0,5.6-0.6,8.2-1.8&#10;&#9;&#9;&#9;c1,0.1,2,0.3,3,0.5c2.6,3.8,5.8,7.1,9.5,9.6C1435.5,650.5,1430.9,650.5,1426.3,651.5z M1431.8,636c-3.9-1.1-7.4-3.2-10.2-6.1&#10;&#9;&#9;&#9;c3.1-0.7,6.1-2.1,8.6-4.1c1-0.2,2.1-0.2,3.1-0.3c3.5,3,7.4,5.3,11.7,6.8C1440.5,632.8,1436,634,1431.8,636z M1433.2,619.7&#10;&#9;&#9;&#9;c-4-0.1-7.9-1.2-11.4-3.2c2.9-1.4,5.3-3.6,7.2-6.2c1-0.4,1.9-0.8,2.9-1.1c4.1,2,8.6,3.2,13.1,3.6&#10;&#9;&#9;&#9;C1440.7,614.3,1436.7,616.7,1433.2,619.7z M1472.9,595.2c-4.2,5.8-10.2,9.9-17.1,11.8c-1.7,0.4-3.3,0.7-5,0.9&#10;&#9;&#9;&#9;c-4.6-2.3-9.8-3.2-15-2.7c4.8-2.1,8.9-5.6,11.8-9.9c1.5-0.7,3.1-1.2,4.7-1.7C1459.1,591.7,1466.4,592.3,1472.9,595.2z&#10;&#9;&#9;&#9; M1462.3,569.7c-2.5,6.6-7.3,12.2-13.5,15.8c-1.5,0.9-3,1.6-4.6,2.2c-5.1-1-10.3-0.6-15.2,1.3c4.1-3.3,7.1-7.7,8.8-12.6&#10;&#9;&#9;&#9;c1.3-1,2.6-2,4.1-2.8C1448.1,569.9,1455.3,568.5,1462.3,569.7z M1445.5,547.7c-0.7,7.1-3.9,13.6-8.9,18.7&#10;&#9;&#9;&#9;c-1.2,1.2-2.5,2.3-3.9,3.3c-5.2,0.3-10.1,2.1-14.4,5.2c3.1-4.3,4.9-9.3,5.2-14.5c1-1.3,2-2.6,3.2-3.8&#10;&#9;&#9;&#9;C1431.8,551.6,1438.4,548.5,1445.5,547.7z M1423.5,530.9c1.1,7-0.2,14.2-3.8,20.4c-0.9,1.5-1.8,2.9-2.9,4.2&#10;&#9;&#9;&#9;c-4.9,1.6-9.2,4.6-12.5,8.7c1.9-4.9,2.3-10.2,1.3-15.3c0.6-1.5,1.3-3,2.1-4.5C1411.3,538.2,1416.9,533.4,1423.5,530.9z&#10;&#9;&#9;&#9; M1398,520.3c2.9,6.5,3.5,13.7,1.6,20.7c-0.4,1.7-1,3.3-1.7,4.8c-4.3,2.9-7.7,6.9-9.8,11.7c0.6-5.3-0.4-10.5-2.7-15.2&#10;&#9;&#9;&#9;c0.2-1.6,0.5-3.3,0.9-4.9C1388.1,530.5,1392.2,524.5,1398,520.3z M1370.6,516.7c4.5,5.5,6.9,12.4,6.9,19.6c0,1.7-0.1,3.4-0.4,5.1&#10;&#9;&#9;&#9;c-3.4,3.9-5.7,8.6-6.5,13.8c-0.8-5.2-3.1-10-6.6-13.9c-0.3-1.6-0.4-3.3-0.4-5C1363.6,529.1,1366.1,522.2,1370.6,516.7z&#10;&#9;&#9;&#9; M1343.1,520.3c5.8,4.2,9.9,10.2,11.8,17.1c0.4,1.7,0.7,3.3,0.9,5c-2.3,4.6-3.2,9.8-2.7,15c-2.1-4.8-5.6-8.9-9.9-11.8&#10;&#9;&#9;&#9;c-0.7-1.5-1.2-3.1-1.7-4.7C1339.7,534.1,1340.2,526.8,1343.1,520.3z M1317.6,530.9c6.6,2.5,12.2,7.3,15.8,13.5&#10;&#9;&#9;&#9;c0.9,1.5,1.6,3,2.2,4.6c-1,5.1-0.6,10.3,1.3,15.2c-3.3-4.1-7.7-7.2-12.6-8.8c-1-1.3-2-2.6-2.8-4.1&#10;&#9;&#9;&#9;C1317.8,545.1,1316.5,537.9,1317.6,530.9z M1314.4,556.7c1.2,1.2,2.3,2.5,3.3,3.9c0.3,5.2,2.1,10.1,5.2,14.4&#10;&#9;&#9;&#9;c-4.3-3.1-9.3-4.9-14.5-5.2c-1.3-1-2.6-2-3.8-3.2c-5.1-5.1-8.2-11.7-8.9-18.7C1302.7,548.5,1309.3,551.6,1314.4,556.7z&#10;&#9;&#9;&#9; M1278.8,569.7c7-1.1,14.2,0.2,20.4,3.8c1.5,0.9,2.9,1.8,4.2,2.9c1.6,4.9,4.6,9.2,8.7,12.5c-4.9-1.9-10.2-2.3-15.3-1.3&#10;&#9;&#9;&#9;c-1.5-0.6-3-1.3-4.5-2.1C1286.1,581.9,1281.4,576.3,1278.8,569.7z M1268.2,595.2c6.5-2.9,13.7-3.5,20.7-1.6c1.7,0.4,3.3,1,4.8,1.7&#10;&#9;&#9;&#9;c2.9,4.3,6.9,7.7,11.7,9.8c-5.3-0.6-10.5,0.4-15.2,2.7c-1.6-0.2-3.3-0.5-4.9-0.9C1278.4,605.1,1272.4,601,1268.2,595.2z&#10;&#9;&#9;&#9; M1284.2,615.7c1.7,0,3.4,0.1,5.1,0.4c3.9,3.4,8.6,5.7,13.8,6.5c-5.2,0.8-10,3.1-13.9,6.6c-1.6,0.3-3.3,0.4-5,0.4&#10;&#9;&#9;&#9;c-7.2,0-14-2.4-19.6-6.9C1270.2,618.2,1277,615.7,1284.2,615.7z M1268.2,650.1c4.2-5.8,10.2-9.9,17.1-11.8c1.7-0.4,3.3-0.7,5-0.9&#10;&#9;&#9;&#9;c3.8,1.9,7.9,2.8,12.1,2.8c1,0,2-0.1,3-0.2c-4.9,2.1-8.9,5.6-11.8,10c-1.5,0.7-3.1,1.2-4.7,1.7&#10;&#9;&#9;&#9;C1282,653.5,1274.7,653,1268.2,650.1z M1278.8,675.6c2.5-6.6,7.3-12.2,13.5-15.8c1.5-0.9,3-1.6,4.6-2.2c1.8,0.4,3.6,0.5,5.4,0.5&#10;&#9;&#9;&#9;c3.3,0,6.7-0.6,9.8-1.9c-4.1,3.3-7.2,7.7-8.8,12.7c-1.3,1-2.6,2-4.1,2.8C1293,675.4,1285.8,676.7,1278.8,675.6z M1295.7,697.5&#10;&#9;&#9;&#9;c0.7-7.1,3.9-13.6,8.9-18.7c1.2-1.2,2.5-2.3,3.9-3.3c5.2-0.3,10.1-2.1,14.4-5.2c-3.1,4.3-4.9,9.3-5.2,14.5c-1,1.3-2,2.6-3.2,3.8&#10;&#9;&#9;&#9;C1309.3,693.7,1302.7,696.8,1295.7,697.5z M1317.6,714.4c-1.1-7,0.2-14.2,3.8-20.4c0.9-1.5,1.8-2.9,2.9-4.2&#10;&#9;&#9;&#9;c4.9-1.6,9.2-4.7,12.5-8.7c-1.9,4.9-2.3,10.2-1.3,15.4c-0.6,1.5-1.3,3-2.1,4.5C1329.8,707.1,1324.2,711.8,1317.6,714.4z&#10;&#9;&#9;&#9; M1343.1,725c-2.9-6.5-3.5-13.7-1.6-20.7c0.4-1.7,1-3.3,1.7-4.8c4.3-2.9,7.7-6.9,9.8-11.7c-0.6,5.3,0.4,10.5,2.7,15.2&#10;&#9;&#9;&#9;c-0.2,1.6-0.5,3.3-0.9,4.9C1353,714.8,1348.9,720.8,1343.1,725z M1370.6,728.6c-4.5-5.5-6.9-12.4-6.9-19.6c0-1.7,0.1-3.4,0.4-5.1&#10;&#9;&#9;&#9;c3.4-3.9,5.7-8.6,6.5-13.8c0.8,5.2,3.1,10,6.6,13.9c0.3,1.6,0.4,3.3,0.4,5C1377.5,716.2,1375,723,1370.6,728.6z M1398,725&#10;&#9;&#9;&#9;c-5.8-4.2-9.9-10.2-11.8-17.1c-0.4-1.7-0.7-3.3-0.9-5c2.3-4.6,3.2-9.8,2.7-15c2.1,4.8,5.6,8.9,9.9,11.8c0.7,1.5,1.2,3.1,1.7,4.7&#10;&#9;&#9;&#9;C1401.5,711.2,1400.9,718.5,1398,725z M1423.5,714.4c-6.6-2.5-12.2-7.3-15.8-13.5c-0.9-1.5-1.6-3-2.2-4.6c1-5.1,0.6-10.3-1.3-15.2&#10;&#9;&#9;&#9;c3.3,4.1,7.7,7.2,12.6,8.8c1,1.3,2,2.6,2.8,4.1C1423.3,700.2,1424.7,707.4,1423.5,714.4z M1426.7,688.6c-1.2-1.2-2.3-2.5-3.3-3.9&#10;&#9;&#9;&#9;c-0.3-5.2-2.1-10.1-5.2-14.4c4.3,3.1,9.3,4.9,14.5,5.2c1.3,1,2.6,2,3.8,3.2c5.1,5.1,8.2,11.7,8.9,18.7&#10;&#9;&#9;&#9;C1438.4,696.8,1431.8,693.7,1426.7,688.6z M1462.3,675.6c-7,1.1-14.2-0.2-20.4-3.8c-1.5-0.9-2.9-1.8-4.2-2.9&#10;&#9;&#9;&#9;c-1.6-4.9-4.6-9.2-8.7-12.5c3.2,1.2,6.5,1.9,9.9,1.9c1.8,0,3.7-0.2,5.5-0.6c1.5,0.6,3,1.3,4.5,2.1&#10;&#9;&#9;&#9;C1455,663.4,1459.8,669,1462.3,675.6z M1472.9,650.1c-6.5,2.9-13.7,3.5-20.7,1.6c-1.7-0.4-3.3-1-4.8-1.7&#10;&#9;&#9;&#9;c-2.9-4.3-6.9-7.7-11.7-9.8c1,0.1,2,0.2,3,0.2c4.3,0,8.4-1,12.2-2.9c1.6,0.2,3.3,0.5,4.9,0.9&#10;&#9;&#9;&#9;C1462.7,640.2,1468.7,644.3,1472.9,650.1z M1456.9,629.6c-1.7,0-3.4-0.1-5.1-0.4c-3.9-3.4-8.6-5.7-13.8-6.5&#10;&#9;&#9;&#9;c5.2-0.8,10-3.1,13.9-6.6c1.6-0.3,3.3-0.4,5-0.4c7.2,0,14,2.4,19.6,6.9C1471,627.1,1464.1,629.6,1456.9,629.6z" transform="matrix(1, 0, 0, 1, 0, 0)"/></svg>